<svg xmlns="http://www.w3.org/2000/svg" viewBox="285 160 84 108" fill="none">
<defs>
<filter id="filter0_d_93_145" x="311.77" y="204.58" width="30.4609" height="45.3583" filterUnits="userSpaceOnUse" color-interpolation-filters="sRGB">
<feFlood flood-opacity="0" result="BackgroundImageFix"/>
<feColorMatrix in="SourceAlpha" type="matrix" values="0 0 0 0 0 0 0 0 0 0 0 0 0 0 0 0 0 0 127 0" result="hardAlpha"/>
<feOffset dx="-0.5" dy="0.5"/>
<feGaussianBlur stdDeviation="0.5"/>
<feColorMatrix type="matrix" values="0 0 0 0 0.72549 0 0 0 0 0.34902 0 0 0 0 0.25098 0 0 0 0.75 0"/>
<feBlend mode="normal" in2="BackgroundImageFix" result="effect1_dropShadow_93_145"/>
<feBlend mode="normal" in="SourceGraphic" in2="effect1_dropShadow_93_145" result="shape"/>
</filter>
<radialGradient id="paint0_radial_93_145" cx="0" cy="0" r="1" gradientUnits="userSpaceOnUse" gradientTransform="translate(327.5 228.455) scale(37.9625 37.9625)">
<stop stop-color="#F6C93B"/>
<stop offset="1" stop-color="#E88340"/>
</radialGradient>
<linearGradient id="paint1_linear_93_145" x1="355.534" y1="206.634" x2="299.566" y2="262.601" gradientUnits="userSpaceOnUse">
<stop stop-color="#FFE065"/>
<stop offset="0.007" stop-color="#FFE065" stop-opacity="0.964"/>
<stop offset="0.048" stop-color="#FFE065" stop-opacity="0.784"/>
<stop offset="0.093" stop-color="#FFE065" stop-opacity="0.615"/>
<stop offset="0.142" stop-color="#FFE065" stop-opacity="0.467"/>
<stop offset="0.195" stop-color="#FFE065" stop-opacity="0.34"/>
<stop offset="0.254" stop-color="#FFE065" stop-opacity="0.233"/>
<stop offset="0.32" stop-color="#FFE065" stop-opacity="0.147"/>
<stop offset="0.397" stop-color="#FFE065" stop-opacity="0.08"/>
<stop offset="0.493" stop-color="#FFE065" stop-opacity="0.034"/>
<stop offset="0.627" stop-color="#FFE065" stop-opacity="0.01"/>
<stop offset="1" stop-color="#FFE065" stop-opacity="0"/>
</linearGradient>
<linearGradient id="paint2_linear_93_145" x1="296.809" y1="212.792" x2="365.182" y2="252.267" gradientUnits="userSpaceOnUse">
<stop stop-color="#FFA45D"/>
<stop offset="0.024" stop-color="#FFA45D" stop-opacity="0.928"/>
<stop offset="0.094" stop-color="#FFA45D" stop-opacity="0.735"/>
<stop offset="0.17" stop-color="#FFA45D" stop-opacity="0.56"/>
<stop offset="0.25" stop-color="#FFA45D" stop-opacity="0.409"/>
<stop offset="0.335" stop-color="#FFA45D" stop-opacity="0.282"/>
<stop offset="0.426" stop-color="#FFA45D" stop-opacity="0.179"/>
<stop offset="0.525" stop-color="#FFA45D" stop-opacity="0.099"/>
<stop offset="0.637" stop-color="#FFA45D" stop-opacity="0.043"/>
<stop offset="0.774" stop-color="#FFA45D" stop-opacity="0.01"/>
<stop offset="1" stop-color="#FFA45D" stop-opacity="0"/>
</linearGradient>
<linearGradient id="paint3_linear_93_145" x1="327.5" y1="264.698" x2="327.5" y2="192.211" gradientUnits="userSpaceOnUse">
<stop offset="0.5" stop-color="#F3BD46" stop-opacity="0"/>
<stop offset="0.709" stop-color="#F1BC45" stop-opacity="0.013"/>
<stop offset="0.784" stop-color="#EDB842" stop-opacity="0.06"/>
<stop offset="0.837" stop-color="#E5B23E" stop-opacity="0.141"/>
<stop offset="0.881" stop-color="#D9A938" stop-opacity="0.258"/>
<stop offset="0.918" stop-color="#CA9D30" stop-opacity="0.41"/>
<stop offset="0.951" stop-color="#B88F26" stop-opacity="0.597"/>
<stop offset="0.98" stop-color="#A37E1A" stop-opacity="0.814"/>
<stop offset="1" stop-color="#917011"/>
</linearGradient>
<linearGradient id="paint4_linear_93_145" x1="328.74" y1="163.614" x2="322.309" y2="181.439" gradientUnits="userSpaceOnUse">
<stop stop-color="#F3C048"/>
<stop offset="1" stop-color="#E67A41"/>
</linearGradient>
<linearGradient id="paint5_linear_93_145" x1="314.057" y1="187.54" x2="346.239" y2="187.54" gradientUnits="userSpaceOnUse">
<stop stop-color="#834B41"/>
<stop offset="1" stop-color="#735854"/>
</linearGradient>
<radialGradient id="paint6_radial_93_145" cx="0" cy="0" r="1" gradientUnits="userSpaceOnUse" gradientTransform="translate(339.722 186.087) rotate(180) scale(12.1719 6.23093)">
<stop stop-color="#7D5A54"/>
<stop offset="1" stop-color="#7D5A54" stop-opacity="0"/>
</radialGradient>
<radialGradient id="paint7_radial_93_145" cx="0" cy="0" r="1" gradientUnits="userSpaceOnUse" gradientTransform="translate(341.347 187.538) rotate(180) scale(36.0572 19.6334)">
<stop offset="0.695" stop-color="#B3624D" stop-opacity="0"/>
<stop offset="0.96" stop-color="#B3624D"/>
</radialGradient>
</defs>
<g id="Frame" opacity="0.6">
<path id="Vector_6" d="M290.182 252.791C288.349 250.09 287.807 246.656 287.903 241.775C288.351 218.99 305.395 198.834 314.352 192.211H340.749C350.227 199.729 365.784 221.126 366.993 239.675C367.249 243.605 367.204 248.45 365.483 251.715C358.329 265.286 338.694 264.452 329.75 264.662C320.279 264.885 298.069 264.41 290.182 252.791Z" fill="url(#paint0_radial_93_145)"/>
<path id="Vector_7" d="M290.182 252.791C288.349 250.09 287.807 246.656 287.903 241.775C288.351 218.99 305.395 198.834 314.352 192.211H340.749C350.227 199.729 365.784 221.126 366.993 239.675C367.249 243.605 367.204 248.45 365.483 251.715C358.329 265.286 338.694 264.452 329.75 264.662C320.279 264.885 298.069 264.41 290.182 252.791Z" fill="url(#paint1_linear_93_145)"/>
<path id="Vector_8" d="M290.182 252.791C288.349 250.09 287.807 246.656 287.903 241.775C288.351 218.99 305.395 198.834 314.352 192.211H340.749C350.227 199.729 365.784 221.126 366.993 239.675C367.249 243.605 367.204 248.45 365.483 251.715C358.329 265.286 338.694 264.452 329.75 264.662C320.279 264.885 298.069 264.41 290.182 252.791Z" fill="url(#paint2_linear_93_145)"/>
<path id="Vector_9" d="M290.182 252.791C288.349 250.09 287.807 246.656 287.903 241.775C288.351 218.99 305.395 198.834 314.352 192.211H340.749C350.227 199.729 365.784 221.126 366.993 239.675C367.249 243.605 367.204 248.45 365.483 251.715C358.329 265.286 338.694 264.452 329.75 264.662C320.279 264.885 298.069 264.41 290.182 252.791Z" fill="url(#paint3_linear_93_145)"/>
<path id="Vector_10" d="M307.133 169.367C309.617 173.422 312.577 177.923 315.87 182.867H339.23C342.585 177.55 345.157 173.375 347.692 169.367C348.903 167.28 348.066 164.616 345.934 163.518C344.334 162.693 342.456 163.085 340.904 164C337.402 166.065 335.379 163.631 332.288 158.848C330.734 156.443 328.363 156.315 327.413 156.302C326.462 156.315 324.092 156.443 322.538 158.848C319.447 163.631 317.424 166.065 313.921 164C312.369 163.085 310.492 162.693 308.891 163.518C306.76 164.616 305.922 167.28 307.133 169.367Z" fill="url(#paint4_linear_93_145)"/>
<path id="Vector_11" d="M341.567 182.867H313.534C310.954 182.867 308.862 184.959 308.862 187.539V187.54C308.862 190.12 310.954 192.211 313.534 192.211H341.567C344.147 192.211 346.239 190.12 346.239 187.54V187.539C346.239 184.959 344.147 182.867 341.567 182.867Z" fill="url(#paint5_linear_93_145)"/>
<path id="Vector_12" d="M341.567 182.867H313.534C310.954 182.867 308.862 184.959 308.862 187.539V187.54C308.862 190.12 310.954 192.211 313.534 192.211H341.567C344.147 192.211 346.239 190.12 346.239 187.54V187.539C346.239 184.959 344.147 182.867 341.567 182.867Z" fill="url(#paint6_radial_93_145)"/>
<path id="Vector_13" d="M341.567 182.867H313.534C310.954 182.867 308.862 184.959 308.862 187.539V187.54C308.862 190.12 310.954 192.211 313.534 192.211H341.567C344.147 192.211 346.239 190.12 346.239 187.54V187.539C346.239 184.959 344.147 182.867 341.567 182.867Z" fill="url(#paint7_radial_93_145)"/>
<g id="Group" filter="url(#filter0_d_93_145)">
<path id="Vector_14" d="M325.944 248.439C323.127 248.439 321.033 247.605 319.662 245.937C318.291 244.269 317.605 242.435 317.605 240.434V228.761H313.27V225.87H317.605V212.307C317.605 210.676 317.105 209.453 316.104 208.638C315.104 207.823 314.159 207.304 313.27 207.081V205.08H314.826C316.456 205.08 318.068 205.71 319.662 206.97C321.255 208.23 322.052 210.009 322.052 212.307V225.87H326.388V228.761H322.052V240.434C322.052 241.917 322.404 243.139 323.109 244.103C323.812 245.066 324.757 245.548 325.944 245.548C328.686 245.622 331.076 244.714 333.114 242.824C335.152 240.934 336.764 237.988 337.95 233.986C337.061 234.801 335.819 235.209 334.226 235.209C333.077 235.209 332.076 235.024 331.224 234.653C330.372 234.282 329.76 233.727 329.39 232.985C329.019 232.244 328.834 231.244 328.834 229.983C328.834 228.724 329.093 227.723 329.612 226.982C330.131 226.241 330.817 225.722 331.669 225.425C332.521 225.129 333.466 224.981 334.504 224.981C337.32 224.981 339.229 225.759 340.23 227.315C341.23 228.872 341.73 230.502 341.73 232.207C341.73 234.727 341.026 237.321 339.618 239.989C338.21 242.657 336.412 244.733 334.226 246.215C332.039 247.698 329.279 248.439 325.944 248.439Z" fill="#783C02"/>
</g>
</g>
</svg>
